<?xml version="1.0" encoding="utf-8"?>
<!-- Generator: Adobe Illustrator 24.2.1, SVG Export Plug-In . SVG Version: 6.00 Build 0)  -->
<svg version="1.1" id="Layer_1" xmlns="http://www.w3.org/2000/svg" xmlns:xlink="http://www.w3.org/1999/xlink" x="0px" y="0px"
	 viewBox="0 0 1192 907" style="enable-background:new 0 0 1192 907;" xml:space="preserve">
<style type="text/css">
	.st0{fill:#FFFFFF;stroke:#231F20;stroke-width:2.2426;stroke-miterlimit:10;}
	.st1{fill:#231F20;}
	.st2{font-family:'MyriadPro-Regular';}
	.st3{font-size:26.9115px;}
	.st4{fill:none;}
	.st5{font-size:14.6243px;}
	.st6{letter-spacing:38.2;}
	.st7{fill:#ED222B;stroke:#231F20;stroke-width:3.526;}
	.st8{fill:#ED222B;stroke:#231F20;stroke-width:3.8096;}
	.st9{font-family:'Montserrat-Regular';}
	.st10{font-size:17.941px;}
</style>
<rect x="-4.4" y="-4" class="st0" width="1202.4" height="917.8"/>
<rect x="342.7" y="789.9" width="816.8" height="10.1"/>
<text transform="matrix(1 0 0 1 539.7256 870.9053)" class="st1 st2 st3">Month(s)</text>
<rect x="342.7" y="804.9" class="st4" width="816.8" height="32.7"/>
<text transform="matrix(0.8895 0 0 1 342.6904 815.2686)"><tspan x="0" y="0" class="st1 st2 st5">1</tspan><tspan x="7.5" y="0" class="st1 st2 st5 st6"> </tspan><tspan x="49.6" y="0" class="st1 st2 st5">2</tspan><tspan x="57.1" y="0" class="st1 st2 st5 st6"> </tspan><tspan x="99.2" y="0" class="st1 st2 st5">3</tspan><tspan x="106.7" y="0" class="st1 st2 st5 st6"> </tspan><tspan x="148.8" y="0" class="st1 st2 st5">4</tspan><tspan x="156.3" y="0" class="st1 st2 st5 st6"> </tspan><tspan x="198.4" y="0" class="st1 st2 st5">5</tspan><tspan x="205.9" y="0" class="st1 st2 st5 st6"> </tspan><tspan x="248.1" y="0" class="st1 st2 st5">6</tspan><tspan x="255.6" y="0" class="st1 st2 st5 st6"> </tspan><tspan x="297.7" y="0" class="st1 st2 st5">7</tspan><tspan x="305.2" y="0" class="st1 st2 st5 st6"> </tspan><tspan x="347.3" y="0" class="st1 st2 st5">8</tspan><tspan x="354.8" y="0" class="st1 st2 st5 st6"> </tspan><tspan x="396.9" y="0" class="st1 st2 st5">9</tspan><tspan x="404.4" y="0" class="st1 st2 st5 st6"> </tspan><tspan x="446.5" y="0" class="st1 st2 st5">10</tspan><tspan x="461.5" y="0" class="st1 st2 st5 st6"> </tspan><tspan x="503.6" y="0" class="st1 st2 st5">11</tspan><tspan x="518.6" y="0" class="st1 st2 st5 st6"> </tspan><tspan x="560.7" y="0" class="st1 st2 st5">12</tspan><tspan x="575.7" y="0" class="st1 st2 st5 st6"> </tspan><tspan x="617.8" y="0" class="st1 st2 st5">13</tspan><tspan x="632.8" y="0" class="st1 st2 st5 st6"> </tspan><tspan x="674.9" y="0" class="st1 st2 st5">14</tspan><tspan x="689.9" y="0" class="st1 st2 st5 st6"> </tspan><tspan x="732.1" y="0" class="st1 st2 st5">15</tspan><tspan x="747.1" y="0" class="st1 st2 st5 st6"> </tspan><tspan x="789.2" y="0" class="st1 st2 st5">16</tspan><tspan x="804.2" y="0" class="st1 st2 st5 st6"> </tspan><tspan x="846.3" y="0" class="st1 st2 st5">17</tspan><tspan x="861.3" y="0" class="st1 st2 st5 st6"> </tspan><tspan x="903.4" y="0" class="st1 st2 st5">18</tspan></text>
<rect x="343.3" y="62.8" class="st7" width="46.6" height="42.4"/>
<rect x="389.9" y="131.5" class="st7" width="44.8" height="42.4"/>
<rect x="389.9" y="199" class="st7" width="91.2" height="42.4"/>
<rect x="481.1" y="266.3" class="st7" width="174.9" height="42.4"/>
<rect x="567.3" y="336.9" class="st7" width="280.9" height="42.4"/>
<rect x="567.3" y="407.5" class="st7" width="433.6" height="42.4"/>
<rect x="567.3" y="478.1" class="st7" width="591.3" height="42.4"/>
<rect x="656" y="548.7" class="st7" width="394.2" height="42.4"/>
<rect x="633.5" y="615.1" class="st8" width="458.6" height="43.2"/>
<rect x="633.5" y="687" class="st8" width="525" height="43.2"/>
<text transform="matrix(1 0 0 1 33.8105 77.6855)"><tspan x="0" y="0" class="st1 st9 st10">Prepare/File </tspan><tspan x="0" y="21.5" class="st1 st9 st10">Petition for Probate</tspan></text>
<text transform="matrix(1 0 0 1 31.7803 141.208)"><tspan x="0" y="0" class="st1 st9 st10">Court Hearing on</tspan><tspan x="0" y="21.5" class="st1 st9 st10">Petition for Probate</tspan></text>
<text transform="matrix(1 0 0 1 31.7803 199.0293)"><tspan x="0" y="0" class="st1 st9 st10">Notice to Creditor</tspan><tspan x="0" y="21.5" class="st1 st9 st10">Letters and Orders </tspan><tspan x="0" y="43.1" class="st1 st9 st10">Issued</tspan></text>
<text transform="matrix(1 0 0 1 31.7803 268.7744)"><tspan x="0" y="0" class="st1 st9 st10">Notice to Dept of </tspan><tspan x="0" y="21.5" class="st1 st9 st10">Health Services</tspan><tspan x="0" y="43.1" class="st1 st9 st10">Inventory and Appraisment</tspan></text>
<text transform="matrix(1 0 0 1 31.7803 344.9063)"><tspan x="0" y="0" class="st1 st9 st10">Pay Taxed, Review Claims,</tspan><tspan x="0" y="21.5" class="st1 st9 st10">Distributions Notice to Dept</tspan><tspan x="0" y="43.1" class="st1 st9 st10">of Health and Franchise Board</tspan></text>
<text transform="matrix(1 0 0 1 31.7803 424.8467)"><tspan x="0" y="0" class="st1 st9 st10">Claim of Exemption </tspan><tspan x="0" y="21.5" class="st1 st9 st10">(if assets transfer to a minor)</tspan></text>
<text transform="matrix(1 0 0 1 31.7803 492.5908)"><tspan x="0" y="0" class="st1 st9 st10">Receive Final Tax Letters </tspan><tspan x="0" y="21.5" class="st1 st9 st10">from Federal/State Goverments</tspan></text>
<text transform="matrix(1 0 0 1 33.8115 559.2803)"><tspan x="0" y="0" class="st1 st9 st10">File, Hearing and Approval of </tspan><tspan x="0" y="21.5" class="st1 st9 st10">Final Distribution and Accounting</tspan></text>
<text transform="matrix(1 0 0 1 31.7803 640.7432)" class="st1 st9 st10">Distribution of Assets to Heirs</text>
<text transform="matrix(1 0 0 1 31.7803 688.9043)"><tspan x="0" y="0" class="st1 st9 st10">Final Discharge Order</tspan><tspan x="0" y="21.5" class="st1 st9 st10">(indicate close of probate case)</tspan><tspan x="0" y="43.1" class="st1 st9 st10">Final Distribution of Funds</tspan></text>
</svg>
